Title: The Man From Nowhere (2010)
Year: 2010

Film Genre: Action | Crime | Thriller
Subtitles: English (.srt)
Director: Lee Jeong-beom
Cast: Won Bin, Kim Sae-ron, Kim Tae-hoon, Kim Hee-won, Kim Seong-oh, Lee Jong-pil
 
http://www.imdb.com/title/tt1527788/


General
General
Complete name : The.Man.From.Nowhere.2010.KOR.HDRip.XviD.AC3-BAUM.avi
Format : AVI
Format/Info : Audio Video Interleave
File size : 1.54 GiB
Duration : 1h 59mn
Overall bit rate : 1 849 Kbps
Writing application : AVI-Mux GUI 1.17.8.3, Feb 16 201019:42:50
Writing library : VirtualDub build 32706/release

Video #0
ID : 0
Format : MPEG-4 Visual
Format profile : Advanced Simple@L5
Format settings, BVOP : Yes
Format settings, QPel : No
Format settings, GMC : No warppoints
Format settings, Matrix : Default (H.263)
Codec ID : XVID
Codec ID/Hint : XviD
Duration : 1h 59mn
Bit rate : 1 648 Kbps
Width : 720 pixels
Height : 304 pixels
Display aspect ratio : 2.35:1
Frame rate : 23.976 fps
Color space : YUV
Chroma subsampling : 4:2:0
Bit depth : 8 bits
Scan type : Progressive
Bits/(Pixel*Frame) : 0.314
Stream size : 1.37 GiB (89%)
Writing library : XviD 1.2.1 (UTC 2008-12-04)

Audio #1
ID : 1
Format : AC-3
Format/Info : Audio Coding 3
Mode extension : CM (complete main)
Codec ID : 2000
Duration : 1h 59mn
Bit rate mode : Constant
Bit rate : 192 Kbps
Channel(s) : 2 channels
Channel positions : Front: L R
Sampling rate : 48.0 KHz
Bit depth : 16 bits
Video delay : 6ms
Stream size : 164 MiB (10%)
Alignment : Split accross interleaves
Interleave, duration : 42 ms (1.00 video frame)
Interleave, preload duration : 500 ms
